<?xml version="1.0" encoding="UTF-8"?>
<svg width="64px" height="64px" viewBox="0 0 64 64" version="1.1" xmlns="http://www.w3.org/2000/svg" xmlns:xlink="http://www.w3.org/1999/xlink">
    <!-- Generator: Sketch 51.3 (57544) - http://www.bohemiancoding.com/sketch -->
    <title>question-icon</title>
    <desc>Created with Sketch.</desc>
    <defs></defs>
    <g id="question-icon" stroke="none" stroke-width="1" fill="none" fill-rule="evenodd">
        <path d="M32,11 C19.328125,11 9,19.878906 9,30.992188 C9,37.445313 12.53125,43.0625 17.960938,46.730469 C17.953125,46.945313 17.96875,47.296875 17.683594,48.34375 C17.335938,49.644531 16.625,51.472656 15.1875,53.535156 L14.164063,55 L15.949219,55 C22.140625,55 25.722656,50.964844 26.277344,50.316406 C28.121094,50.75 30.019531,50.988281 32,50.988281 C44.671875,50.988281 55,42.109375 55,30.992188 C55,19.878906 44.671875,11 32,11 Z M33,41.199219 L30.300781,41.199219 L30.300781,38.300781 L33,38.300781 L33,41.199219 Z M37.5,28.601563 C37.101563,29.199219 36.300781,30.101563 35,31.300781 C34.101563,32.199219 33.5,32.898438 33.199219,33.5 C32.898438,34 32.800781,34.800781 32.800781,36 L30.300781,36 C30.300781,34.699219 30.5,33.601563 30.800781,32.800781 C31.101563,32 31.800781,31.101563 32.898438,30 L34,28.898438 C34.300781,28.601563 34.601563,28.300781 34.800781,27.898438 C35.199219,27.300781 35.398438,26.699219 35.398438,26 C35.398438,25.101563 35.101563,24.300781 34.601563,23.699219 C34.101563,23 33.101563,22.699219 31.898438,22.699219 C30.300781,22.699219 29.199219,23.300781 28.601563,24.398438 C28.300781,25 28.101563,26 28,27.101563 L25.5,27.101563 C25.601563,25.199219 26.101563,23.601563 27.300781,22.398438 C28.398438,21.199219 30,20.601563 32,20.601563 C33.800781,20.601563 35.300781,21.101563 36.398438,22.199219 C37.5,23.199219 38.101563,24.601563 38.101563,26.199219 C38.101563,27.199219 37.898438,28 37.5,28.601563 Z" id="icon" fill="#FFFFFF" fill-rule="nonzero"></path>
    </g>
</svg>